<svg xmlns="http://www.w3.org/2000/svg" viewBox="0 0 44.801 47.939"><defs><style>.a{fill:#fff;stroke:red;stroke-miterlimit:10;stroke-width:2.5px;}</style></defs><path class="a" d="M21.458,28.7a24.033,24.033,0,0,0-4.138-1.339s-.974,1.552-1.8,2.83a1.47,1.47,0,0,1-2.373.152A29.324,29.324,0,0,1,9.256,23.89c-.4-.852-1.035-2.221-1.4-3.073a30.76,30.76,0,0,1-2.373-7.273,1.493,1.493,0,0,1,1.674-1.7c1.491.213,3.286.487,3.286.487a18.269,18.269,0,0,0,1.734-3.895c.578-2.008,1.643-4.716,1.643-4.716s-2.678-1.4-3.651-1.887c-.669-.365-2.13-.852-2.8-.548C1.132,4.172-.6,13.788,3.505,22.794c.4.852,1.035,2.221,1.4,3.073C9.013,34.875,17.442,39.865,23.71,37c.639-.3,1.278-1.826,1.43-2.465.274-1.035.974-3.986.974-3.986S23.345,29.58,21.458,28.7Z" transform="translate(0.056 15.515) rotate(-34)"/></svg>