<?xml version="1.0" encoding="utf-8"?>
<!-- Generator: Adobe Illustrator 22.1.0, SVG Export Plug-In . SVG Version: 6.00 Build 0)  -->
<svg version="1.1" id="Laag_1" xmlns="http://www.w3.org/2000/svg" xmlns:xlink="http://www.w3.org/1999/xlink" x="0px" y="0px"
	 viewBox="0 0 44.8 32.4" style="enable-background:new 0 0 44.8 32.4;" xml:space="preserve">
<style type="text/css">
	.st0{fill:#FFFFFF;stroke:#FF0000;stroke-width:2.5;stroke-miterlimit:10;}
</style>
<path class="st0" d="M33.9,19.6c-1.4,0.3-2.8,0.7-4.2,1.2c0,0,0.1,1.8,0.1,3.4c0,0.8-0.6,1.5-1.4,1.5c-0.2,0-0.3,0-0.5-0.1
	c-2.4-0.8-4.7-1.8-6.8-3.2c-0.8-0.5-2.1-1.3-2.9-1.8c-2.2-1.3-4.2-2.9-6-4.7c-0.6-0.6-0.5-1.6,0.1-2.1c0.1-0.1,0.2-0.2,0.3-0.2
	c1.4-0.7,3-1.4,3-1.4c-0.1-1.4-0.3-2.8-0.7-4.2c-0.6-2-1.3-4.8-1.3-4.8s-3,0.3-4.1,0.5C8.8,3.7,7.3,4.1,6.9,4.7
	c-3.6,5.9,0.4,14.8,8.8,20c0.8,0.5,2.1,1.3,2.9,1.8c8.4,5.2,18.2,4.6,21.8-1.3c0.4-0.6,0-2.2-0.2-2.8c-0.4-1-1.4-3.8-1.4-3.8
	S36,19.2,33.9,19.6z"/>
</svg>
