<svg xmlns="http://www.w3.org/2000/svg" viewBox="0 0 95.641 65.924"><defs><style>.a,.b,.c{fill:none;stroke:#fff;stroke-miterlimit:10;}.a,.b{stroke-width:2.5px;}.b,.c{stroke-linecap:round;}.c{stroke-width:1.5px;}</style></defs><g transform="translate(1.25 0.75)"><circle class="a" cx="7.498" cy="7.498" r="7.498" transform="translate(8.365 48.928)"/><circle class="a" cx="7.498" cy="7.498" r="7.498" transform="translate(63.862 48.928)"/><path class="a" d="M90.515,41.829l-4.948-2.04a5.2,5.2,0,0,1-3.316-2.805L73.479,23.109A5.108,5.108,0,0,0,68.786,20.1H6.352A5.138,5.138,0,0,0,1.2,25.252v33.92a5.138,5.138,0,0,0,5.152,5.152H9.565a7.5,7.5,0,1,1,15,0H65.113a7.5,7.5,0,0,1,15,0h9.079a5.138,5.138,0,0,0,5.152-5.152V46.777A5.3,5.3,0,0,0,90.515,41.829Z" transform="translate(-1.2 -7.847)"/><line class="b" y2="11.681" transform="translate(23.311 23.475)"/><line class="b" x1="11.681" transform="translate(17.496 29.29)"/><line class="b" x2="33.155" transform="translate(36.267 34.339)"/><path class="b" d="M115.6,15.336c0-2.88,1.866-5.236,4.214-5.236s4.214,2.356,4.214,5.236" transform="translate(-57.89 -3.955)"/><line class="c" y2="2.55" transform="translate(61.924 0)"/><line class="c" x2="1.275" y2="2.193" transform="translate(57.073 0.918)"/><line class="c" x1="1.275" y2="2.193" transform="translate(65.5 0.918)"/></g></svg>