<svg xmlns="http://www.w3.org/2000/svg" viewBox="0 0 34.85 51.69"><defs><style>.a{fill:none;stroke:red;stroke-miterlimit:10;stroke-width:2.5px;}.b{fill:red;}</style></defs><g transform="translate(1.25 1.25)"><path class="a" d="M32.85,17.792c0,13.408-16.175,31.286-16.175,31.286S.5,31.254.5,17.792,7.736.5,16.675.5,32.85,4.384,32.85,17.792Z" transform="translate(-0.5 -0.5)"/><g transform="translate(10.968 6.89)"><path class="b" d="M23,22.334a7.992,7.992,0,0,1,.33-2.241,5.629,5.629,0,0,1,1.054-1.845A4.458,4.458,0,0,1,26.1,17.061a5.9,5.9,0,0,1,2.241-.461,6.636,6.636,0,0,1,2.043.33,4.756,4.756,0,0,1,1.582.923,4.18,4.18,0,0,1,1.054,1.516,4.913,4.913,0,0,1,.4,2.043,4.249,4.249,0,0,1-.2,1.318,5.1,5.1,0,0,1-.461,1.054,4.231,4.231,0,0,1-.659.857,7.9,7.9,0,0,0-.725.791,7.518,7.518,0,0,0-.725.725,6.98,6.98,0,0,0-.659.791,4.026,4.026,0,0,0-.461.923,3.078,3.078,0,0,0-.2,1.12v.923H27.284v-1.12a3.467,3.467,0,0,1,.4-1.714,5.013,5.013,0,0,1,.791-1.252,6.99,6.99,0,0,1,.989-.989,12.651,12.651,0,0,0,.923-.989,6.529,6.529,0,0,0,.725-1.12,2.752,2.752,0,0,0,.2-1.516,2.927,2.927,0,0,0-.857-2.043,2.969,2.969,0,0,0-2.043-.725,3.142,3.142,0,0,0-1.45.33,2.645,2.645,0,0,0-1.054.857,3.674,3.674,0,0,0-.593,1.252,5.767,5.767,0,0,0-.2,1.582H23Zm3.888,9.029h2.636V34H26.888V31.363Z" transform="translate(-23 -16.6)"/></g></g></svg>