<svg xmlns="http://www.w3.org/2000/svg" viewBox="0 0 62.542 57.472"><defs><style>.a{fill:none;stroke:red;stroke-miterlimit:10;stroke-width:2.5px;}</style></defs><g transform="translate(0.75 0.85)"><path class="a" d="M20.483,13.071H.5V3.408A2.923,2.923,0,0,1,3.408.5H20.483V13.071Z" transform="translate(0 -0.006)"/><rect class="a" width="19.983" height="12.665" transform="translate(20.483 0.4)"/><path class="a" d="M63.183,13.065H43.2V.4H60.274a2.923,2.923,0,0,1,2.908,2.908Z" transform="translate(-2.641)"/><path class="a" d="M43.2,45.4H63.183v9.757a2.923,2.923,0,0,1-2.908,2.908H43.2Z" transform="translate(-2.641 -2.783)"/><rect class="a" width="19.983" height="12.665" transform="translate(40.537 55.372) rotate(180)"/><path class="a" d="M.5,45.4H20.483V58.065H3.408A2.923,2.923,0,0,1,.5,55.157Z" transform="translate(0 -2.783)"/><rect class="a" width="60.042" height="29.552" transform="translate(0.5 13.065)"/><path class="a" d="M41.7,28.31,27.813,19.491a.869.869,0,0,0-1.313.751V37.785a.869.869,0,0,0,1.313.751L41.7,29.717A.878.878,0,0,0,41.7,28.31Z" transform="translate(-1.608 -1.172)"/></g></svg>