<svg xmlns="http://www.w3.org/2000/svg" viewBox="0 0 92.839 28.403"><defs><style>.a{fill:#2d2d2d;}.b{fill:red;}</style></defs><path class="a" d="M195.865,7.02a.684.684,0,0,0,.609-.73V.73a.684.684,0,0,0-.609-.73H175.049a.684.684,0,0,0-.609.73V6.37c0,.081-.041.122-.041.2V21.424a.366.366,0,0,0,.041.2v5.64a.684.684,0,0,0,.609.73h20.816a.684.684,0,0,0,.609-.73V21.708a.684.684,0,0,0-.609-.73h-11.97V17.529h7.994a.684.684,0,0,0,.609-.73V11.24a.684.684,0,0,0-.609-.73h-7.994V7.06h11.97Z" transform="translate(-103.635)"/><path class="a" d="M114.159,0h-8.237c-.2,0-.771,0-.893.162l-7.466,11.2L90.1.162C89.976,0,89.408,0,89.205,0H80.968A.656.656,0,0,0,80.4.73V27.673a.656.656,0,0,0,.568.73H88.8a.656.656,0,0,0,.568-.73V16.515l7.71,10.144a.617.617,0,0,0,.933,0l7.3-10.144V27.673a.656.656,0,0,0,.568.73h8.237a.656.656,0,0,0,.568-.73V.73A.6.6,0,0,0,114.159,0Z" transform="translate(-47.777)"/><path class="b" d="M18.949,9.454V1.5a1.524,1.524,0,0,0-1.5-1.5H10.956a1.524,1.524,0,0,0-1.5,1.5V9.454H1.5a1.524,1.524,0,0,0-1.5,1.5v6.492a1.524,1.524,0,0,0,1.5,1.5H9.454V26.9a1.524,1.524,0,0,0,1.5,1.5h6.492a1.524,1.524,0,0,0,1.5-1.5V18.949H26.9a1.524,1.524,0,0,0,1.5-1.5V10.956a1.524,1.524,0,0,0-1.5-1.5Z"/></svg>