<svg xmlns="http://www.w3.org/2000/svg" viewBox="0 0 39.114 56.239"><defs><style>.a{fill:none;stroke:red;stroke-miterlimit:10;stroke-width:2.5px;}</style></defs><g transform="translate(0.008 0.123)"><path class="a" d="M30.816,41.454a35.176,35.176,0,0,0-6.057-1.96s-1.425,2.271-2.628,4.142a2.152,2.152,0,0,1-3.474.223,42.92,42.92,0,0,1-5.7-9.442c-.579-1.247-1.514-3.251-2.049-4.5A45.022,45.022,0,0,1,7.433,19.274a2.185,2.185,0,0,1,2.45-2.494c2.182.312,4.81.713,4.81.713a26.74,26.74,0,0,0,2.539-5.7c.846-2.939,2.405-6.9,2.405-6.9S15.717,2.84,14.292,2.127c-.98-.534-3.118-1.247-4.1-.8-9.13,4.231-11.669,18.3-5.656,31.488.579,1.247,1.514,3.251,2.049,4.5C12.6,50.495,24.937,57.8,34.111,53.613c.935-.445,1.871-2.672,2.093-3.608.4-1.514,1.425-5.834,1.425-5.834S33.577,42.745,30.816,41.454Z" transform="translate(0 0)"/><path class="a" d="M56.475,31.209H53.045V27.78a.989.989,0,0,0-.98-.98H47.389a.989.989,0,0,0-.98.98v3.429H42.98a.989.989,0,0,0-.98.98v4.676a.989.989,0,0,0,.98.98h3.429v3.429a.989.989,0,0,0,.98.98h4.676a.989.989,0,0,0,.98-.98V37.845h3.429a.989.989,0,0,0,.98-.98V32.144A.951.951,0,0,0,56.475,31.209Z" transform="translate(-22.586 -14.206)"/></g></svg>