<svg xmlns="http://www.w3.org/2000/svg" viewBox="0 0 41.479 34.377"><defs><style>.a{fill:red;}</style></defs><g transform="translate(0 -41.75)"><g transform="translate(0 41.75)"><path class="a" d="M40.867,51.1a41.233,41.233,0,0,0-10.784-3.411L29.827,46.6a6.245,6.245,0,0,0-6.107-4.848H17.759A6.25,6.25,0,0,0,11.652,46.6L11.4,47.687A40.853,40.853,0,0,0,.612,51.1,1.145,1.145,0,0,0,0,52.109V65.632a9.842,9.842,0,0,0,9.832,9.832,1.148,1.148,0,1,0,0-2.3A7.544,7.544,0,0,1,2.3,65.632v-12.8a42.924,42.924,0,0,1,10.249-3.019,1.148,1.148,0,0,0,.919-.868l.425-1.829a3.96,3.96,0,0,1,3.87-3.07h5.962a3.958,3.958,0,0,1,3.87,3.07l.425,1.829a1.136,1.136,0,0,0,.919.868,43.34,43.34,0,0,1,10.249,3.019v12.8a7.544,7.544,0,0,1-7.535,7.535,1.148,1.148,0,1,0,0,2.3,9.842,9.842,0,0,0,9.832-9.832V52.109A1.129,1.129,0,0,0,40.867,51.1Z" transform="translate(0 -41.75)"/><path class="a" d="M31.784,87.668a1.05,1.05,0,0,0,.357-.06c1.208-.4,2.475-.757,3.768-1.063a1.145,1.145,0,1,0-.527-2.228c-1.352.323-2.688.7-3.963,1.114a1.147,1.147,0,0,0-.731,1.446A1.172,1.172,0,0,0,31.784,87.668Z" transform="translate(-28.024 -80.668)"/><path class="a" d="M101.717,135.05a13.221,13.221,0,1,0,13.217,13.225A13.231,13.231,0,0,0,101.717,135.05Zm0,24.146a10.925,10.925,0,1,1,10.92-10.929A10.933,10.933,0,0,1,101.717,159.2Z" transform="translate(-80.973 -127.115)"/></g></g></svg>