<svg xmlns="http://www.w3.org/2000/svg" viewBox="0 0 47.071 29.377"><defs><style>.a{fill:none;stroke:red;stroke-miterlimit:10;stroke-width:2.5px;}</style></defs><path class="a" d="M44.626,8.981,31.275,1.268c-.036-.018-.072,0-.072.036V5.6a.057.057,0,0,1-.054.054H2.445A1.153,1.153,0,0,0,1.3,6.8V26.984a1.153,1.153,0,0,0,1.145,1.145H6.83a1.153,1.153,0,0,0,1.145-1.145V13.473A1.153,1.153,0,0,1,9.12,12.327H31.168a.057.057,0,0,1,.054.054v4.295c0,.036.036.054.072.036Z" transform="translate(-0.05 -0.003)"/></svg>