<svg xmlns="http://www.w3.org/2000/svg" viewBox="0 0 33.62 33.62"><defs><style>.a{fill:red;}</style></defs><g transform="translate(0 -0.001)"><g transform="translate(0 0.001)"><path class="a" d="M31.9,13.282l-2.36-.4a13.324,13.324,0,0,0-.948-2.29l1.391-1.945a2.071,2.071,0,0,0-.225-2.676L27.664,3.878A2.062,2.062,0,0,0,26.2,3.267a2.041,2.041,0,0,0-1.2.386L23.043,5.044a13.186,13.186,0,0,0-2.374-.976l-.393-2.332A2.075,2.075,0,0,0,18.225,0H15.268a2.075,2.075,0,0,0-2.051,1.735L12.81,4.124a13,13,0,0,0-2.283.962L8.6,3.7A2.074,2.074,0,0,0,5.92,3.92l-2.1,2.093A2.079,2.079,0,0,0,3.6,8.689L5,10.662a13.015,13.015,0,0,0-.934,2.3l-2.332.393A2.075,2.075,0,0,0,0,15.4v2.957A2.075,2.075,0,0,0,1.735,20.41l2.388.407A13,13,0,0,0,5.085,23.1L3.7,25.024A2.071,2.071,0,0,0,3.926,27.7l2.093,2.093a2.062,2.062,0,0,0,1.468.611,2.041,2.041,0,0,0,1.2-.386l1.973-1.4a13.286,13.286,0,0,0,2.219.913l.393,2.36a2.075,2.075,0,0,0,2.051,1.735h2.964a2.075,2.075,0,0,0,2.051-1.735l.4-2.36a13.324,13.324,0,0,0,2.29-.948l1.945,1.391a2.062,2.062,0,0,0,1.208.386h0a2.062,2.062,0,0,0,1.468-.611l2.093-2.093a2.079,2.079,0,0,0,.225-2.676l-1.391-1.952a13.229,13.229,0,0,0,.948-2.29l2.36-.393a2.075,2.075,0,0,0,1.735-2.051V15.332A2.05,2.05,0,0,0,31.9,13.282Zm-.162,5.007a.182.182,0,0,1-.155.183l-2.95.492a.943.943,0,0,0-.758.7A11.243,11.243,0,0,1,26.653,22.6a.95.95,0,0,0,.042,1.032l1.735,2.444a.191.191,0,0,1-.021.239l-2.093,2.093a.178.178,0,0,1-.133.056.172.172,0,0,1-.105-.035L23.64,26.7a.949.949,0,0,0-1.032-.042,11.243,11.243,0,0,1-2.943,1.222.932.932,0,0,0-.7.758l-.5,2.95a.182.182,0,0,1-.183.155H15.331a.182.182,0,0,1-.183-.155l-.492-2.95a.943.943,0,0,0-.7-.758,11.674,11.674,0,0,1-2.879-1.18.972.972,0,0,0-.478-.126.925.925,0,0,0-.548.176L7.6,28.494a.209.209,0,0,1-.105.035.188.188,0,0,1-.133-.056L5.267,26.38a.19.19,0,0,1-.021-.239l1.728-2.423a.961.961,0,0,0,.042-1.039A11.137,11.137,0,0,1,5.78,19.743a.962.962,0,0,0-.758-.7l-2.971-.506a.182.182,0,0,1-.155-.183V15.4a.182.182,0,0,1,.155-.183l2.929-.492a.95.95,0,0,0,.766-.7,11.231,11.231,0,0,1,1.2-2.95A.938.938,0,0,0,6.9,10.051L5.148,7.593a.191.191,0,0,1,.021-.239L7.262,5.261A.178.178,0,0,1,7.4,5.205.173.173,0,0,1,7.5,5.24L9.924,6.968a.961.961,0,0,0,1.039.042A11.137,11.137,0,0,1,13.9,5.774a.962.962,0,0,0,.7-.758L15.1,2.045a.182.182,0,0,1,.183-.155h2.957a.182.182,0,0,1,.183.155l.492,2.929a.95.95,0,0,0,.7.766,11.4,11.4,0,0,1,3.013,1.236.95.95,0,0,0,1.032-.042l2.423-1.742a.209.209,0,0,1,.105-.035.188.188,0,0,1,.133.056l2.093,2.093a.19.19,0,0,1,.021.239L26.7,9.981a.949.949,0,0,0-.042,1.032,11.243,11.243,0,0,1,1.222,2.943.932.932,0,0,0,.758.7l2.95.5a.182.182,0,0,1,.155.183v2.957Z" transform="translate(0 -0.001)"/><path class="a" d="M143.355,136a7.255,7.255,0,1,0,7.255,7.255A7.259,7.259,0,0,0,143.355,136Zm0,12.613a5.359,5.359,0,1,1,5.359-5.359A5.362,5.362,0,0,1,143.355,148.615Z" transform="translate(-126.542 -126.45)"/></g></g></svg>