<svg xmlns="http://www.w3.org/2000/svg" viewBox="0 0 276.54 150.1"><defs><style>.a,.b,.c,.d{fill:none;stroke:red;}.a,.b,.c{stroke-miterlimit:10;}.a,.b,.d{stroke-width:2.5px;}.b,.c{stroke-linecap:round;}.c{stroke-width:1.5px;}</style></defs><g transform="translate(-44.5 -198.459)"><g transform="translate(104 199.209)"><circle class="a" cx="17.372" cy="17.372" r="17.372" transform="translate(19.381 113.356)"/><circle class="a" cx="17.372" cy="17.372" r="17.372" transform="translate(147.957 113.356)"/><path class="a" d="M208.126,70.443l-11.463-4.727a12.048,12.048,0,0,1-7.681-6.5L168.656,27.072A11.835,11.835,0,0,0,157.783,20.1H13.136A11.9,11.9,0,0,0,1.2,32.036v78.587a11.9,11.9,0,0,0,11.936,11.936h7.445a17.372,17.372,0,1,1,34.744,0h93.95a17.372,17.372,0,1,1,34.744,0h21.035a11.9,11.9,0,0,0,11.936-11.936V81.906A12.271,12.271,0,0,0,208.126,70.443Z" transform="translate(-1.2 8.288)"/><line class="b" y2="27.062" transform="translate(54.006 54.386)"/><line class="b" x1="27.062" transform="translate(40.534 67.858)"/><line class="b" x2="76.814" transform="translate(84.023 79.558)"/><path class="b" d="M115.6,22.23c0-6.672,4.323-12.13,9.762-12.13s9.762,5.459,9.762,12.13" transform="translate(18.104 4.136)"/><line class="c" y2="5.909" transform="translate(143.466 0)"/><line class="c" x2="2.954" y2="5.082" transform="translate(132.226 2.127)"/><line class="c" x1="2.954" y2="5.082" transform="translate(151.751 2.127)"/></g><line class="d" x2="50" transform="translate(44.5 262.5)"/><line class="d" x2="34" transform="translate(60.5 286.5)"/><line class="d" x2="19" transform="translate(75.5 310.5)"/></g></svg>