<svg xmlns="http://www.w3.org/2000/svg" viewBox="0 0 78.941 60.456"><defs><style>.a{fill:none;stroke:red;stroke-miterlimit:10;stroke-width:2.5px;}</style></defs><g transform="translate(-0.05 -0.05)"><path class="a" d="M53.62,14.73V9.668A8.375,8.375,0,0,0,45.253,1.3H9.668A8.337,8.337,0,0,0,1.3,9.668V31.346a8.375,8.375,0,0,0,8.368,8.368h3.127c-.566,7.772-4.664,17.1-4.664,17.1s12.615-9.088,14.789-17.1H45.253a8.375,8.375,0,0,0,8.368-8.368V26.284l24.12,5.539V9.191Z" transform="translate(0)"/><path class="a" d="M84.205,39.673l-16.319-9.44A1.2,1.2,0,0,0,66.1,31.275V50.154A1.2,1.2,0,0,0,67.887,51.2l16.348-9.44A1.214,1.214,0,0,0,84.205,39.673Z" transform="translate(-45.504 -20.208)"/></g></svg>